<svg width="156" height="43" viewBox="0 0 156 43" fill="none" xmlns="http://www.w3.org/2000/svg">
<path fill-rule="evenodd" clip-rule="evenodd" d="M45.2722 41.4375V0.858512H34.5122L22.6075 30.1624L10.4166 0.858512H0V41.4375H7.5549V13.2211L19.2307 41.4375H25.8126L37.4883 12.9921V41.4375H45.2722ZM62.5569 41.4375V0.858512H54.5441V41.4375H62.5569ZM108.573 41.4375V20.3181H88.3122V27.1862H101.133C100.675 30.0479 97.7558 35.0845 90.2582 35.0845C83.4473 35.0845 77.4377 30.3341 77.4377 21.1766C77.4377 11.5613 84.0769 7.3832 90.2009 7.3832C96.7829 7.3832 100.16 11.5613 101.19 15.167L108.745 12.477C106.742 6.23852 100.846 0 90.2009 0C79.212 0 69.425 8.07001 69.425 21.1766C69.425 34.2832 78.7541 42.296 89.6858 42.296C95.8099 42.296 99.8163 39.5488 101.648 36.8015L102.163 41.4375H108.573ZM122.309 21.1194C122.309 30.2768 128.719 34.6266 134.958 34.6266C141.254 34.6266 147.664 30.2768 147.664 21.1194C147.664 11.9619 141.254 7.61214 134.958 7.61214C128.719 7.61214 122.309 11.9619 122.309 21.1194ZM114.125 21.1766C114.125 8.07001 123.969 0 134.958 0C146.004 0 155.848 8.07001 155.848 21.1766C155.848 34.226 146.004 42.296 134.958 42.296C123.969 42.296 114.125 34.226 114.125 21.1766Z" fill="url(#paint0_linear_816_3000)"/>
<defs>
<linearGradient id="paint0_linear_816_3000" x1="77.0369" y1="-4.62214" x2="53.5544" y2="54.0899" gradientUnits="userSpaceOnUse">
<stop stop-color="#FF8960"/>
<stop offset="1" stop-color="#FF62A5"/>
</linearGradient>
</defs>
</svg>
